# xmcd CD database file
#
# Track frame offsets:
#	150
#	20128
#	35315
#	58454
#	86727
#	115696
#	142039
#	163833
#	175998
#	206011
#
# Disc length: 3047 seconds
#
# Revision: 2
# Processed by: cddbd v1.4PL0 Copyright (c) Steve Scherf et al.
# Submitted via: CDex 1.51
#
DISCID=930be50a
DTITLE=Various Artist - SALSA! - Top Latino Dance Music Disc 1/2
DYEAR=1994
DGENRE=Salsa
TTITLE0=Los Van Van - Quien Bien Te Quierre Te Hara Lloorar
TTITLE1=Johnny Pacheco y Jose Fajardo - Hombre Hispanoamericano
TTITLE2=Celia Cruz Con La Sonora Matanzera - Feliz Encuentro
TTITLE3=Irakere - Catalina
TTITLE4=Larry Harlow - La Cartera
TTITLE5=Tito Puente  Tratame Como Soy
TTITLE6=Hector Lavoe - Lo Deje Llorando
TTITLE7=Eddie Palmieri - Conmigo
TTITLE8=Willie Colon - El Diablo
TTITLE9=Richie Ray and Bobby Cruz - Nabucodosonor
EXTD=YEAR: 1994
EXTT0=
EXTT1=
EXTT2=
EXTT3=
EXTT4=
EXTT5=
EXTT6=
EXTT7=
EXTT8=
EXTT9=
PLAYORDER=
